{
  "accessors": [
    {
      "name": "ac-Mesh_0_positions",
      "componentType": 5126,
      "count": 10760,
      "min": [
        -394.8919982910156,
        56.204689025878906,
        -327.6759948730469
      ],
      "max": [
        515.5579833984375,
        336.37799072265625,
        270.9209899902344
      ],
      "type": "VEC3",
      "bufferView": 0,
      "byteOffset": 0
    },
    {
      "name": "ac-Mesh_0_normals",
      "componentType": 5126,
      "count": 10760,
      "min": [
        -0.9854044914245605,
        -1,
        -0.9799725413322449
      ],
      "max": [
        0.9854044914245605,
        1,
        0.9799725413322449
      ],
      "type": "VEC3",
      "bufferView": 1,
      "byteOffset": 0
    },
    {
      "name": "ac-Mesh_0_texcoords",
      "componentType": 5126,
      "count": 10760,
      "min": [
        -1.5955300331115723,
        -0.9255499839782715
      ],
      "max": [
        1.6145600080490112,
        2.3386800289154053
      ],
      "type": "VEC2",
      "bufferView": 2,
      "byteOffset": 0
    },
    {
      "name": "ac-Mesh_0_indices",
      "componentType": 5123,
      "count": 10800,
      "min": [
        0
      ],
      "max": [
        10759
      ],
      "type": "SCALAR",
      "bufferView": 3,
      "byteOffset": 0
    },
    {
      "name": "ac-Mesh_1_positions",
      "componentType": 5126,
      "count": 13450,
      "min": [
        -486.8089904785156,
        20.45670509338379,
        -364.80999755859375
      ],
      "max": [
        567.5980224609375,
        403.1889953613281,
        333.0220031738281
      ],
      "type": "VEC3",
      "bufferView": 0,
      "byteOffset": 129120
    },
    {
      "name": "ac-Mesh_1_normals",
      "componentType": 5126,
      "count": 13450,
      "min": [
        -0.9854044914245605,
        -1,
        -0.9799909591674805
      ],
      "max": [
        0.9854044914245605,
        1,
        0.9799909591674805
      ],
      "type": "VEC3",
      "bufferView": 1,
      "byteOffset": 129120
    },
    {
      "name": "ac-Mesh_1_texcoords",
      "componentType": 5126,
      "count": 13450,
      "min": [
        -1.5955300331115723,
        -0.9255499839782715
      ],
      "max": [
        1.6145600080490112,
        2.3386800289154053
      ],
      "type": "VEC2",
      "bufferView": 2,
      "byteOffset": 86080
    },
    {
      "name": "ac-Mesh_1_indices",
      "componentType": 5123,
      "count": 13500,
      "min": [
        0
      ],
      "max": [
        13449
      ],
      "type": "SCALAR",
      "bufferView": 3,
      "byteOffset": 21600
    },
    {
      "name": "ac-Mesh_2_positions",
      "componentType": 5126,
      "count": 538,
      "min": [
        226.72799682617188,
        0.0000019999999949504854,
        -63.773101806640625
      ],
      "max": [
        273.2340087890625,
        47.24409866333008,
        -17.47519874572754
      ],
      "type": "VEC3",
      "bufferView": 0,
      "byteOffset": 290520
    },
    {
      "name": "ac-Mesh_2_normals",
      "componentType": 5126,
      "count": 538,
      "min": [
        -0.9854044914245605,
        -1,
        -0.9799725413322449
      ],
      "max": [
        0.9854044914245605,
        1,
        0.9799725413322449
      ],
      "type": "VEC3",
      "bufferView": 1,
      "byteOffset": 290520
    },
    {
      "name": "ac-Mesh_2_texcoords",
      "componentType": 5126,
      "count": 538,
      "min": [
        -1.5955300331115723,
        -0.9255499839782715
      ],
      "max": [
        1.6145600080490112,
        2.3386800289154053
      ],
      "type": "VEC2",
      "bufferView": 2,
      "byteOffset": 193680
    },
    {
      "name": "ac-Mesh_2_indices",
      "componentType": 5123,
      "count": 540,
      "min": [
        0
      ],
      "max": [
        537
      ],
      "type": "SCALAR",
      "bufferView": 3,
      "byteOffset": 48600
    },
    {
      "name": "ac-Mesh_3_positions",
      "componentType": 5126,
      "count": 1614,
      "min": [
        -429.34100341796875,
        134.9920196533203,
        -219.04100036621094
      ],
      "max": [
        331.7510070800781,
        205.6540069580078,
        73.78950500488281
      ],
      "type": "VEC3",
      "bufferView": 0,
      "byteOffset": 296976
    },
    {
      "name": "ac-Mesh_3_normals",
      "componentType": 5126,
      "count": 1614,
      "min": [
        -0.9854044914245605,
        -1,
        -0.9799725413322449
      ],
      "max": [
        0.9854044914245605,
        1,
        0.9799725413322449
      ],
      "type": "VEC3",
      "bufferView": 1,
      "byteOffset": 296976
    },
    {
      "name": "ac-Mesh_3_texcoords",
      "componentType": 5126,
      "count": 1614,
      "min": [
        -1.5955300331115723,
        -0.9255499839782715
      ],
      "max": [
        1.6145600080490112,
        2.3386800289154053
      ],
      "type": "VEC2",
      "bufferView": 2,
      "byteOffset": 197984
    },
    {
      "name": "ac-Mesh_3_indices",
      "componentType": 5123,
      "count": 1620,
      "min": [
        0
      ],
      "max": [
        1613
      ],
      "type": "SCALAR",
      "bufferView": 3,
      "byteOffset": 49680
    },
    {
      "name": "ac-Mesh_4_positions",
      "componentType": 5126,
      "count": 336,
      "min": [
        -368.53900146484375,
        21.024402618408203,
        -67.5137939453125
      ],
      "max": [
        261.1619873046875,
        214.7989959716797,
        252.76300048828125
      ],
      "type": "VEC3",
      "bufferView": 0,
      "byteOffset": 316344
    },
    {
      "name": "ac-Mesh_4_normals",
      "componentType": 5126,
      "count": 336,
      "min": [
        -0.980819582939148,
        -0.9901080131530762,
        -0.9664293527603149
      ],
      "max": [
        0.9808457493782043,
        0.9901080131530762,
        0.9664351940155029
      ],
      "type": "VEC3",
      "bufferView": 1,
      "byteOffset": 316344
    },
    {
      "name": "ac-Mesh_4_texcoords",
      "componentType": 5126,
      "count": 336,
      "min": [
        -0.4224039912223816,
        0
      ],
      "max": [
        0.41728800535202026,
        1
      ],
      "type": "VEC2",
      "bufferView": 2,
      "byteOffset": 210896
    },
    {
      "name": "ac-Mesh_4_indices",
      "componentType": 5123,
      "count": 576,
      "min": [
        0
      ],
      "max": [
        335
      ],
      "type": "SCALAR",
      "bufferView": 3,
      "byteOffset": 52920
    },
    {
      "name": "ac-Mesh_5_positions",
      "componentType": 5126,
      "count": 1288,
      "min": [
        -479.3699951171875,
        28.9010066986084,
        -360.90399169921875
      ],
      "max": [
        562.531982421875,
        394.6470031738281,
        326.1109924316406
      ],
      "type": "VEC3",
      "bufferView": 0,
      "byteOffset": 320376
    },
    {
      "name": "ac-Mesh_5_normals",
      "componentType": 5126,
      "count": 1288,
      "min": [
        -0.9932759404182434,
        -0.9938487410545349,
        -0.9929936528205872
      ],
      "max": [
        0.9932698607444763,
        0.9938487410545349,
        0.9929936528205872
      ],
      "type": "VEC3",
      "bufferView": 1,
      "byteOffset": 320376
    },
    {
      "name": "ac-Mesh_5_texcoords",
      "componentType": 5126,
      "count": 1288,
      "min": [
        -0.26602301001548767,
        0.6062989830970764
      ],
      "max": [
        0.26602301001548767,
        1
      ],
      "type": "VEC2",
      "bufferView": 2,
      "byteOffset": 213584
    },
    {
      "name": "ac-Mesh_5_indices",
      "componentType": 5123,
      "count": 2208,
      "min": [
        0
      ],
      "max": [
        1287
      ],
      "type": "SCALAR",
      "bufferView": 3,
      "byteOffset": 54072
    }
  ],
  "asset": {
    "generator": "obj2gltf",
    "version": "2.0"
  },
  "buffers": [
    {
      "name": "ac",
      "byteLength": 954040,
      "uri": "data:application/octet-stream;base64,"
    }
  ],
  "bufferViews": [
    {
      "name": "bufferView_0",
      "buffer": 0,
      "byteLength": 335832,
      "byteOffset": 0,
      "byteStride": 12,
      "target": 34962
    },
    {
      "name": "bufferView_1",
      "buffer": 0,
      "byteLength": 335832,
      "byteOffset": 335832,
      "byteStride": 12,
      "target": 34962
    },
    {
      "name": "bufferView_2",
      "buffer": 0,
      "byteLength": 223888,
      "byteOffset": 671664,
      "byteStride": 8,
      "target": 34962
    },
    {
      "name": "bufferView_3",
      "buffer": 0,
      "byteLength": 58488,
      "byteOffset": 895552,
      "target": 34963
    }
  ],
  "materials": [
    {
      "name": "_",
      "pbrMetallicRoughness": {
        "baseColorFactor": [
          0.133333,
          0.133333,
          0.133333,
          1
        ],
        "metallicFactor": 0,
        "roughnessFactor": 1
      },
      "emissiveFactor": [
        0,
        0,
        0
      ],
      "alphaMode": "OPAQUE",
      "doubleSided": false
    },
    {
      "name": "_1",
      "pbrMetallicRoughness": {
        "baseColorFactor": [
          0.866667,
          0.866667,
          0.866667,
          1
        ],
        "metallicFactor": 0,
        "roughnessFactor": 1
      },
      "emissiveFactor": [
        0,
        0,
        0
      ],
      "alphaMode": "OPAQUE",
      "doubleSided": false
    },
    {
      "name": "_2",
      "pbrMetallicRoughness": {
        "baseColorFactor": [
          0.866667,
          0,
          0,
          1
        ],
        "metallicFactor": 0,
        "roughnessFactor": 1
      },
      "emissiveFactor": [
        0,
        0,
        0
      ],
      "alphaMode": "OPAQUE",
      "doubleSided": false
    },
    {
      "name": "_3",
      "pbrMetallicRoughness": {
        "baseColorFactor": [
          0,
          0,
          0.866667,
          1
        ],
        "metallicFactor": 0,
        "roughnessFactor": 1
      },
      "emissiveFactor": [
        0,
        0,
        0
      ],
      "alphaMode": "OPAQUE",
      "doubleSided": false
    },
    {
      "name": "double_bond",
      "pbrMetallicRoughness": {
        "baseColorFactor": [
          0.847059,
          0.847059,
          0.847059,
          1
        ],
        "metallicFactor": 0,
        "roughnessFactor": 1
      },
      "emissiveFactor": [
        0,
        0,
        0
      ],
      "alphaMode": "OPAQUE",
      "doubleSided": false
    },
    {
      "name": "single_bond",
      "pbrMetallicRoughness": {
        "baseColorFactor": [
          0.858824,
          0.858824,
          0.858824,
          1
        ],
        "metallicFactor": 0,
        "roughnessFactor": 1
      },
      "emissiveFactor": [
        0,
        0,
        0
      ],
      "alphaMode": "OPAQUE",
      "doubleSided": false
    }
  ],
  "meshes": [
    {
      "name": "ac-Mesh",
      "primitives": [
        {
          "attributes": {
            "POSITION": 0,
            "NORMAL": 1,
            "TEXCOORD_0": 2
          },
          "indices": 3,
          "material": 0,
          "mode": 4
        },
        {
          "attributes": {
            "POSITION": 4,
            "NORMAL": 5,
            "TEXCOORD_0": 6
          },
          "indices": 7,
          "material": 1,
          "mode": 4
        },
        {
          "attributes": {
            "POSITION": 8,
            "NORMAL": 9,
            "TEXCOORD_0": 10
          },
          "indices": 11,
          "material": 2,
          "mode": 4
        },
        {
          "attributes": {
            "POSITION": 12,
            "NORMAL": 13,
            "TEXCOORD_0": 14
          },
          "indices": 15,
          "material": 3,
          "mode": 4
        },
        {
          "attributes": {
            "POSITION": 16,
            "NORMAL": 17,
            "TEXCOORD_0": 18
          },
          "indices": 19,
          "material": 4,
          "mode": 4
        },
        {
          "attributes": {
            "POSITION": 20,
            "NORMAL": 21,
            "TEXCOORD_0": 22
          },
          "indices": 23,
          "material": 5,
          "mode": 4
        }
      ]
    }
  ],
  "nodes": [
    {
      "name": "ac",
      "mesh": 0
    }
  ],
  "scene": 0,
  "scenes": [
    {
      "nodes": [
        0
      ]
    }
  ]
}
