{
  "asset": {
    "version": "2.0",
    "generator": "THREE.GLTFExporter"
  },
  "scenes": [
    {
      "name": "Scene",
      "nodes": [
        6
      ]
    }
  ],
  "scene": 0,
  "nodes": [
    {
      "name": "ac-Mesh",
      "mesh": 0
    },
    {
      "name": "ac-Mesh_1",
      "mesh": 1
    },
    {
      "name": "ac-Mesh_2",
      "mesh": 2
    },
    {
      "name": "ac-Mesh_3",
      "mesh": 3
    },
    {
      "name": "ac-Mesh_4",
      "mesh": 4
    },
    {
      "name": "ac-Mesh_5",
      "mesh": 5
    },
    {
      "name": "model (1).obj",
      "children": [
        0,
        1,
        2,
        3,
        4,
        5
      ]
    }
  ],
  "bufferViews": [
    {
      "buffer": 0,
      "byteOffset": 0,
      "byteLength": 129600,
      "target": 34962,
      "byteStride": 12
    },
    {
      "buffer": 0,
      "byteOffset": 129600,
      "byteLength": 129600,
      "target": 34962,
      "byteStride": 12
    },
    {
      "buffer": 0,
      "byteOffset": 259200,
      "byteLength": 86400,
      "target": 34962,
      "byteStride": 8
    },
    {
      "buffer": 0,
      "byteOffset": 345600,
      "byteLength": 162000,
      "target": 34962,
      "byteStride": 12
    },
    {
      "buffer": 0,
      "byteOffset": 507600,
      "byteLength": 162000,
      "target": 34962,
      "byteStride": 12
    },
    {
      "buffer": 0,
      "byteOffset": 669600,
      "byteLength": 108000,
      "target": 34962,
      "byteStride": 8
    },
    {
      "buffer": 0,
      "byteOffset": 777600,
      "byteLength": 6480,
      "target": 34962,
      "byteStride": 12
    },
    {
      "buffer": 0,
      "byteOffset": 784080,
      "byteLength": 6480,
      "target": 34962,
      "byteStride": 12
    },
    {
      "buffer": 0,
      "byteOffset": 790560,
      "byteLength": 4320,
      "target": 34962,
      "byteStride": 8
    },
    {
      "buffer": 0,
      "byteOffset": 794880,
      "byteLength": 19440,
      "target": 34962,
      "byteStride": 12
    },
    {
      "buffer": 0,
      "byteOffset": 814320,
      "byteLength": 19440,
      "target": 34962,
      "byteStride": 12
    },
    {
      "buffer": 0,
      "byteOffset": 833760,
      "byteLength": 12960,
      "target": 34962,
      "byteStride": 8
    },
    {
      "buffer": 0,
      "byteOffset": 846720,
      "byteLength": 6912,
      "target": 34962,
      "byteStride": 12
    },
    {
      "buffer": 0,
      "byteOffset": 853632,
      "byteLength": 6912,
      "target": 34962,
      "byteStride": 12
    },
    {
      "buffer": 0,
      "byteOffset": 860544,
      "byteLength": 4608,
      "target": 34962,
      "byteStride": 8
    },
    {
      "buffer": 0,
      "byteOffset": 865152,
      "byteLength": 26496,
      "target": 34962,
      "byteStride": 12
    },
    {
      "buffer": 0,
      "byteOffset": 891648,
      "byteLength": 26496,
      "target": 34962,
      "byteStride": 12
    },
    {
      "buffer": 0,
      "byteOffset": 918144,
      "byteLength": 17664,
      "target": 34962,
      "byteStride": 8
    }
  ],
  "buffers": [
    {
      "byteLength": 935808,
      "uri": "data:application/octet-stream;base64,"
    }
  ],
  "accessors": [
    {
      "bufferView": 0,
      "componentType": 5126,
      "count": 10800,
      "max": [
        2.5777900218963623,
        1.6818900108337402,
        1.354604959487915
      ],
      "min": [
        -1.9744600057601929,
        0.28102344274520874,
        -1.6383799314498901
      ],
      "type": "VEC3"
    },
    {
      "bufferView": 1,
      "componentType": 5126,
      "count": 10800,
      "max": [
        0.9854044914245605,
        1,
        0.9799725413322449
      ],
      "min": [
        -0.9854044914245605,
        -1,
        -0.9799725413322449
      ],
      "type": "VEC3"
    },
    {
      "bufferView": 2,
      "componentType": 5126,
      "count": 10800,
      "max": [
        1.6145600080490112,
        2.3386800289154053
      ],
      "min": [
        -1.5955300331115723,
        -0.9255499839782715
      ],
      "type": "VEC2"
    },
    {
      "bufferView": 3,
      "componentType": 5126,
      "count": 13500,
      "max": [
        2.8379900455474854,
        2.0159449577331543,
        1.6651099920272827
      ],
      "min": [
        -2.43404483795166,
        0.1022835224866867,
        -1.824049949645996
      ],
      "type": "VEC3"
    },
    {
      "bufferView": 4,
      "componentType": 5126,
      "count": 13500,
      "max": [
        0.9854044914245605,
        1,
        0.9799909591674805
      ],
      "min": [
        -0.9854044914245605,
        -1,
        -0.9799909591674805
      ],
      "type": "VEC3"
    },
    {
      "bufferView": 5,
      "componentType": 5126,
      "count": 13500,
      "max": [
        1.6145600080490112,
        2.3386800289154053
      ],
      "min": [
        -1.5955300331115723,
        -0.9255499839782715
      ],
      "type": "VEC2"
    },
    {
      "bufferView": 6,
      "componentType": 5126,
      "count": 540,
      "max": [
        1.366170048713684,
        0.23622049391269684,
        -0.08737599104642868
      ],
      "min": [
        1.133639931678772,
        9.99999993922529e-9,
        -0.31886550784111023
      ],
      "type": "VEC3"
    },
    {
      "bufferView": 7,
      "componentType": 5126,
      "count": 540,
      "max": [
        0.9854044914245605,
        1,
        0.9799725413322449
      ],
      "min": [
        -0.9854044914245605,
        -1,
        -0.9799725413322449
      ],
      "type": "VEC3"
    },
    {
      "bufferView": 8,
      "componentType": 5126,
      "count": 540,
      "max": [
        1.6145600080490112,
        2.3386800289154053
      ],
      "min": [
        -1.5955300331115723,
        -0.9255499839782715
      ],
      "type": "VEC2"
    },
    {
      "bufferView": 9,
      "componentType": 5126,
      "count": 1620,
      "max": [
        1.6587550640106201,
        1.0282700061798096,
        0.3689475357532501
      ],
      "min": [
        -2.146704912185669,
        0.6749600768089294,
        -1.0952049493789673
      ],
      "type": "VEC3"
    },
    {
      "bufferView": 10,
      "componentType": 5126,
      "count": 1620,
      "max": [
        0.9854044914245605,
        1,
        0.9799725413322449
      ],
      "min": [
        -0.9854044914245605,
        -1,
        -0.9799725413322449
      ],
      "type": "VEC3"
    },
    {
      "bufferView": 11,
      "componentType": 5126,
      "count": 1620,
      "max": [
        1.6145600080490112,
        2.3386800289154053
      ],
      "min": [
        -1.5955300331115723,
        -0.9255499839782715
      ],
      "type": "VEC2"
    },
    {
      "bufferView": 12,
      "componentType": 5126,
      "count": 576,
      "max": [
        1.3058099746704102,
        1.0739949941635132,
        1.2638150453567505
      ],
      "min": [
        -1.8426949977874756,
        0.10512201488018036,
        -0.3375689685344696
      ],
      "type": "VEC3"
    },
    {
      "bufferView": 13,
      "componentType": 5126,
      "count": 576,
      "max": [
        0.9808457493782043,
        0.9901080131530762,
        0.9664351940155029
      ],
      "min": [
        -0.980819582939148,
        -0.9901080131530762,
        -0.9664293527603149
      ],
      "type": "VEC3"
    },
    {
      "bufferView": 14,
      "componentType": 5126,
      "count": 576,
      "max": [
        0.41728800535202026,
        1
      ],
      "min": [
        -0.4224039912223816,
        0
      ],
      "type": "VEC2"
    },
    {
      "bufferView": 15,
      "componentType": 5126,
      "count": 2208,
      "max": [
        2.812659978866577,
        1.973235011100769,
        1.6305549144744873
      ],
      "min": [
        -2.3968498706817627,
        0.14450503885746002,
        -1.8045200109481812
      ],
      "type": "VEC3"
    },
    {
      "bufferView": 16,
      "componentType": 5126,
      "count": 2208,
      "max": [
        0.9932698607444763,
        0.9938487410545349,
        0.9929936528205872
      ],
      "min": [
        -0.9932759404182434,
        -0.9938487410545349,
        -0.9929936528205872
      ],
      "type": "VEC3"
    },
    {
      "bufferView": 17,
      "componentType": 5126,
      "count": 2208,
      "max": [
        0.26602301001548767,
        1
      ],
      "min": [
        -0.26602301001548767,
        0.6062989830970764
      ],
      "type": "VEC2"
    }
  ],
  "materials": [
    {
      "pbrMetallicRoughness": {
        "metallicFactor": 0.5,
        "roughnessFactor": 0.5
      },
      "name": "_"
    },
    {
      "pbrMetallicRoughness": {
        "metallicFactor": 0.5,
        "roughnessFactor": 0.5
      },
      "name": "_1"
    },
    {
      "pbrMetallicRoughness": {
        "metallicFactor": 0.5,
        "roughnessFactor": 0.5
      },
      "name": "_2"
    },
    {
      "pbrMetallicRoughness": {
        "metallicFactor": 0.5,
        "roughnessFactor": 0.5
      },
      "name": "_3"
    },
    {
      "pbrMetallicRoughness": {
        "metallicFactor": 0.5,
        "roughnessFactor": 0.5
      },
      "name": "double_bond"
    },
    {
      "pbrMetallicRoughness": {
        "metallicFactor": 0.5,
        "roughnessFactor": 0.5
      },
      "name": "single_bond"
    }
  ],
  "meshes": [
    {
      "primitives": [
        {
          "mode": 4,
          "attributes": {
            "POSITION": 0,
            "NORMAL": 1,
            "TEXCOORD_0": 2
          },
          "material": 0
        }
      ]
    },
    {
      "primitives": [
        {
          "mode": 4,
          "attributes": {
            "POSITION": 3,
            "NORMAL": 4,
            "TEXCOORD_0": 5
          },
          "material": 1
        }
      ]
    },
    {
      "primitives": [
        {
          "mode": 4,
          "attributes": {
            "POSITION": 6,
            "NORMAL": 7,
            "TEXCOORD_0": 8
          },
          "material": 2
        }
      ]
    },
    {
      "primitives": [
        {
          "mode": 4,
          "attributes": {
            "POSITION": 9,
            "NORMAL": 10,
            "TEXCOORD_0": 11
          },
          "material": 3
        }
      ]
    },
    {
      "primitives": [
        {
          "mode": 4,
          "attributes": {
            "POSITION": 12,
            "NORMAL": 13,
            "TEXCOORD_0": 14
          },
          "material": 4
        }
      ]
    },
    {
      "primitives": [
        {
          "mode": 4,
          "attributes": {
            "POSITION": 15,
            "NORMAL": 16,
            "TEXCOORD_0": 17
          },
          "material": 5
        }
      ]
    }
  ]
}